# xmcd
#
# Track frame offsets: 
#        150
#        18150
#        35294
#        57011
#        76120
#        95695
#        110849
#        133649
#        148229
#        170283
#
# Disc length: 2526 seconds
#
# Revision: 0
# Processed by: cddbd v1.5.2PL0 Copyright (c) Steve Scherf et al.
# Submitted via: ExactAudioCopy v1.0b1
#
DISCID=7d09dc0a
DTITLE=Alberto Reina - Sueño por las sevillanas
DYEAR=2009
DGENRE=Sevillanas
TTITLE0=Costalerito valiente
TTITLE1=¡Ay, barrio de San Miguel!
TTITLE2=Mi Cuaresma
TTITLE3=Se va a llamar Macarena
TTITLE4=Un deseo y un querer
TTITLE5=Mi Marchena costalera
TTITLE6=Un milagro en el rincón
TTITLE7=Vengo para conquistarte
TTITLE8=Tu historia por sevillanas
TTITLE9=Príncipe de la verdad (A Silvio Fdez. Melgarejo)
EXTD=
EXTT0=
EXTT1=
EXTT2=
EXTT3=
EXTT4=
EXTT5=
EXTT6=
EXTT7=
EXTT8=
EXTT9=
PLAYORDER=
